<svg width="19" height="19" viewBox="0 0 19 19" fill="none" xmlns="http://www.w3.org/2000/svg">
<g id="iconamoon:discover-fill">
<path id="Vector" fill-rule="evenodd" clip-rule="evenodd" d="M1.58325 9.50001C1.58325 5.12764 5.12754 1.58334 9.49992 1.58334C13.8723 1.58334 17.4166 5.12764 17.4166 9.50001C17.4166 13.8724 13.8723 17.4167 9.49992 17.4167C5.12754 17.4167 1.58325 13.8724 1.58325 9.50001ZM11.8749 7.12501L8.95129 7.71005C8.64501 7.77144 8.36372 7.92205 8.14284 8.14293C7.92195 8.36381 7.77134 8.6451 7.70996 8.95139L7.12492 11.875L10.0485 11.29C10.355 11.2287 10.6364 11.0782 10.8575 10.8573C11.0785 10.6364 11.2292 10.355 11.2907 10.0486L11.8749 7.12501Z" fill="#E6E6E6"/>
</g>
</svg>
