<svg width="27" height="28" viewBox="0 0 27 28" fill="none" xmlns="http://www.w3.org/2000/svg">
<g id="material-symbols:search">
<path id="Vector" d="M23.9652 25.0847L16.9059 18.0254C16.3456 18.4736 15.7013 18.8285 14.973 19.0899C14.2446 19.3514 13.4696 19.4821 12.6479 19.4821C10.6123 19.4821 8.88967 18.7769 7.48005 17.3665C6.07043 15.9562 5.36525 14.2336 5.3645 12.1987C5.36376 10.1638 6.06894 8.44121 7.48005 7.03084C8.89116 5.62048 10.6138 4.9153 12.6479 4.9153C14.682 4.9153 16.405 5.62048 17.8169 7.03084C19.2287 8.44121 19.9335 10.1638 19.9313 12.1987C19.9313 13.0204 19.8006 13.7954 19.5391 14.5238C19.2777 15.2521 18.9228 15.8964 18.4746 16.4567L25.5339 23.516L23.9652 25.0847ZM12.6479 17.241C14.0486 17.241 15.2393 16.751 16.2201 15.7709C17.201 14.7908 17.691 13.6001 17.6902 12.1987C17.6895 10.7973 17.1995 9.60693 16.2201 8.62759C15.2408 7.64825 14.05 7.15784 12.6479 7.15634C11.2458 7.15485 10.0554 7.64526 9.07679 8.62759C8.0982 9.60991 7.60779 10.8003 7.60555 12.1987C7.60331 13.5971 8.09372 14.7878 9.07679 15.7709C10.0599 16.754 11.2502 17.244 12.6479 17.241Z" fill="white"/>
</g>
</svg>
