<svg width="109" height="109" viewBox="0 0 109 109" fill="none" xmlns="http://www.w3.org/2000/svg">
<g id="nrk:404">
<path id="Vector" fill-rule="evenodd" clip-rule="evenodd" d="M43.5635 37.5914L39.4851 31.3057L55.1993 21.1006L59.2777 27.3863L43.5635 37.5914ZM41.3608 47.9555L37.2779 41.6698L33.1995 35.3841L29.112 29.103L35.4022 25.0155L51.1163 14.8149L57.3975 10.732L61.485 17.0176L65.5634 23.3033L69.6463 29.589L63.3607 33.6719L47.6465 43.8771L41.3608 47.9555ZM61.6621 66.4083L69.3693 70.3368L68.9151 61.694L68.0613 45.2986L67.6071 36.6603L60.3495 41.3746L46.5792 50.3126L39.3216 55.0268L47.0334 58.9554L61.6621 66.4083ZM61.2079 57.7655L60.7992 50.0128L54.291 54.2411L61.2079 57.7655ZM80.5463 54.3365H91.7869V91.8098H80.5463V54.3365ZM99.2807 46.8428V99.3036H73.0526V46.8473L99.2807 46.8428ZM37.2779 50.0128L20.2012 99.6169L13.1162 97.1781L30.1929 47.574L37.2779 50.0128ZM48.6911 91.8098C49.9386 91.8373 51.179 91.6153 52.3395 91.1569C53.5 90.6985 54.5573 90.0129 55.4492 89.1404C56.3412 88.2678 57.0499 87.2259 57.5337 86.0757C58.0176 84.9256 58.2668 83.6904 58.2668 82.4426C58.2668 81.1948 58.0176 79.9596 57.5337 78.8095C57.0499 77.6593 56.3412 76.6174 55.4492 75.7449C54.5573 74.8723 53.5 74.1867 52.3395 73.7283C51.179 73.2699 49.9386 73.048 48.6911 73.0754C46.2425 73.1293 43.9123 74.1399 42.1996 75.8907C40.4869 77.6415 39.5279 79.9934 39.5279 82.4426C39.5279 84.8918 40.4869 87.2437 42.1996 88.9945C43.9123 90.7453 46.2425 91.7559 48.6911 91.8098ZM65.5543 82.4403C65.591 84.6778 65.182 86.9003 64.3512 88.9781C63.5203 91.0559 62.2842 92.9476 60.7149 94.5429C59.1456 96.1382 57.2744 97.4052 55.2105 98.27C53.1466 99.1349 50.9312 99.5803 48.6934 99.5803C46.4556 99.5803 44.2401 99.1349 42.1762 98.27C40.1123 97.4052 38.2411 96.1382 36.6718 94.5429C35.1025 92.9476 33.8664 91.0559 33.0355 88.9781C32.2047 86.9003 31.7957 84.6778 31.8324 82.4403C31.905 78.0165 33.7134 73.7983 36.8675 70.6955C40.0217 67.5928 44.2689 65.8539 48.6934 65.8539C53.1178 65.8539 57.3651 67.5928 60.5192 70.6955C63.6733 73.7983 65.4817 78.0165 65.5543 82.4403Z" fill="#4D4D4D"/>
</g>
</svg>
