<svg width="19" height="19" viewBox="0 0 19 19" fill="none" xmlns="http://www.w3.org/2000/svg">
<g id="solar:feed-bold">
<path id="Vector" fill-rule="evenodd" clip-rule="evenodd" d="M2.375 7.91668C2.375 4.9313 2.375 3.43822 3.30283 2.51118C4.23067 1.58414 5.72296 1.58334 8.70833 1.58334H10.2917C13.277 1.58334 14.7701 1.58334 15.6972 2.51118C16.6242 3.43901 16.625 4.9313 16.625 7.91668V11.0833C16.625 14.0687 16.625 15.5618 15.6972 16.4888C14.7693 17.4159 13.277 17.4167 10.2917 17.4167H8.70833C5.72296 17.4167 4.22987 17.4167 3.30283 16.4888C2.37579 15.561 2.375 14.0687 2.375 11.0833V7.91668ZM4.75 9.50001C4.75 8.38059 4.75 7.82088 5.09833 7.47334C5.44508 7.12501 6.00479 7.12501 7.125 7.12501H11.875C12.9944 7.12501 13.5541 7.12501 13.9017 7.47334C14.25 7.82088 14.25 8.38059 14.25 9.50001V12.6667C14.25 13.7861 14.25 14.3458 13.9017 14.6933C13.5541 15.0417 12.9944 15.0417 11.875 15.0417H7.125C6.00558 15.0417 5.44588 15.0417 5.09833 14.6933C4.75 14.3466 4.75 13.7869 4.75 12.6667V9.50001ZM5.54167 4.15626C5.38419 4.15626 5.23317 4.21882 5.12182 4.33017C5.01047 4.44151 4.94792 4.59254 4.94792 4.75001C4.94792 4.90748 5.01047 5.05851 5.12182 5.16985C5.23317 5.2812 5.38419 5.34376 5.54167 5.34376H9.5C9.65747 5.34376 9.8085 5.2812 9.91984 5.16985C10.0312 5.05851 10.0938 4.90748 10.0938 4.75001C10.0938 4.59254 10.0312 4.44151 9.91984 4.33017C9.8085 4.21882 9.65747 4.15626 9.5 4.15626H5.54167Z" fill="#E6E6E6"/>
</g>
</svg>
