<svg width="19" height="19" viewBox="0 0 19 19" fill="none" xmlns="http://www.w3.org/2000/svg">
<g id="ri:group-2-fill">
<path id="Vector" d="M7.91658 15.6338V12.9833C7.91658 11.9676 8.70429 11.1688 9.86963 10.7128C9.11801 10.4336 8.32255 10.291 7.52075 10.2917C6.0245 10.2917 4.64225 10.7801 3.52521 11.6058C3.87175 12.5853 4.45335 13.4647 5.219 14.167C5.98464 14.8693 6.91092 15.373 7.91658 15.6338ZM14.9466 12.7348C14.6339 12.3128 13.5928 11.875 12.2708 11.875C10.6827 11.875 9.49992 12.506 9.49992 12.9833V15.8333C10.5986 15.8336 11.6784 15.5481 12.6333 15.0049C13.5883 14.4616 14.3854 13.6793 14.9466 12.7348ZM7.56034 9.10418C8.03275 9.10418 8.48582 8.91651 8.81987 8.58246C9.15392 8.24841 9.34159 7.79534 9.34159 7.32293C9.34159 6.85051 9.15392 6.39744 8.81987 6.06339C8.48582 5.72934 8.03275 5.54168 7.56034 5.54168C7.08792 5.54168 6.63485 5.72934 6.3008 6.06339C5.96675 6.39744 5.77909 6.85051 5.77909 7.32293C5.77909 7.79534 5.96675 8.24841 6.3008 8.58246C6.63485 8.91651 7.08792 9.10418 7.56034 9.10418ZM12.2708 9.89584C12.6907 9.89584 13.0934 9.72903 13.3903 9.4321C13.6873 9.13516 13.8541 8.73244 13.8541 8.31251C13.8541 7.89258 13.6873 7.48986 13.3903 7.19292C13.0934 6.89599 12.6907 6.72918 12.2708 6.72918C11.8508 6.72918 11.4481 6.89599 11.1512 7.19292C10.8542 7.48986 10.6874 7.89258 10.6874 8.31251C10.6874 8.73244 10.8542 9.13516 11.1512 9.4321C11.4481 9.72903 11.8508 9.89584 12.2708 9.89584ZM9.49992 17.4167C5.12754 17.4167 1.58325 13.8724 1.58325 9.50001C1.58325 5.12764 5.12754 1.58334 9.49992 1.58334C13.8723 1.58334 17.4166 5.12764 17.4166 9.50001C17.4166 13.8724 13.8723 17.4167 9.49992 17.4167Z" fill="#E6E6E6"/>
</g>
</svg>
