<svg width="16" height="19" viewBox="0 0 16 19" fill="none" xmlns="http://www.w3.org/2000/svg">
<g id="Group">
<path id="Vector" fill-rule="evenodd" clip-rule="evenodd" d="M2.16665 6.5C2.16665 4.9529 2.78123 3.46917 3.87519 2.37521C4.96916 1.28125 6.45289 0.666666 7.99998 0.666666C9.54708 0.666666 11.0308 1.28125 12.1248 2.37521C13.2187 3.46917 13.8333 4.9529 13.8333 6.5V9.63667L15.3517 12.6733C15.4215 12.8131 15.4545 12.9684 15.4475 13.1245C15.4405 13.2806 15.3937 13.4324 15.3115 13.5653C15.2294 13.6982 15.1146 13.8079 14.9781 13.884C14.8416 13.9601 14.6879 14 14.5317 14H11.2283C11.043 14.7152 10.6253 15.3486 10.041 15.8008C9.45673 16.2529 8.73881 16.4983 7.99998 16.4983C7.26115 16.4983 6.54324 16.2529 5.95893 15.8008C5.37463 15.3486 4.95701 14.7152 4.77165 14H1.46832C1.31205 14 1.15837 13.9601 1.02187 13.884C0.885376 13.8079 0.770598 13.6982 0.688437 13.5653C0.606276 13.4324 0.559462 13.2806 0.55244 13.1245C0.545418 12.9684 0.578421 12.8131 0.648316 12.6733L2.16665 9.63667V6.5ZM6.55665 14C6.70294 14.2533 6.91333 14.4637 7.16669 14.61C7.42004 14.7563 7.70744 14.8333 7.99998 14.8333C8.29253 14.8333 8.57992 14.7563 8.83328 14.61C9.08664 14.4637 9.29703 14.2533 9.44332 14H6.55665ZM7.99998 2.33333C6.89491 2.33333 5.83511 2.77232 5.0537 3.55372C4.2723 4.33512 3.83332 5.39493 3.83332 6.5V9.63667C3.8333 9.89528 3.7731 10.1503 3.65748 10.3817L2.68248 12.3333H13.3183L12.3433 10.3817C12.2274 10.1504 12.1669 9.89534 12.1666 9.63667V6.5C12.1666 5.39493 11.7277 4.33512 10.9463 3.55372C10.1649 2.77232 9.10505 2.33333 7.99998 2.33333Z" fill="white"/>
</g>
</svg>
