<svg width="43" height="46" viewBox="0 0 43 46" fill="none" xmlns="http://www.w3.org/2000/svg">
<g id="Group">
<path id="Vector" d="M15.3524 7.57706C16.6231 3.85831 21.7614 3.74569 23.268 7.23919L23.3955 7.57919L25.1104 12.5942C25.5034 13.7443 26.1384 14.7968 26.9728 15.6806C27.8071 16.5644 28.8213 17.259 29.9469 17.7176L30.408 17.8897L35.423 19.6024C39.1417 20.8732 39.2544 26.0114 35.763 27.5181L35.423 27.6456L30.408 29.3604C29.2575 29.7532 28.2046 30.3881 27.3204 31.2225C26.4362 32.0568 25.7413 33.0711 25.2825 34.1969L25.1104 34.6559L23.3976 39.6731C22.1269 43.3918 16.9886 43.5044 15.4841 40.0131L15.3524 39.6731L13.6396 34.6581C13.2469 33.5075 12.6119 32.4547 11.7776 31.5705C10.9432 30.6863 9.92891 29.9913 8.8031 29.5326L8.3441 29.3604L3.3291 27.6477C-0.391773 26.3769 -0.504397 21.2387 2.9891 19.7342L3.3291 19.6024L8.3441 17.8897C9.49422 17.4967 10.5467 16.8616 11.4305 16.0273C12.3143 15.1929 13.0089 14.1788 13.4675 13.0532L13.6396 12.5942L15.3524 7.57706ZM36.375 0.250061C36.7725 0.250061 37.1621 0.361577 37.4994 0.571938C37.8368 0.782299 38.1083 1.08307 38.2832 1.44006L38.3852 1.68869L39.129 3.86894L41.3114 4.61269C41.7098 4.74804 42.059 4.99862 42.3148 5.33267C42.5707 5.66672 42.7216 6.0692 42.7484 6.48911C42.7753 6.90901 42.6769 7.32744 42.4657 7.69136C42.2545 8.05528 41.94 8.34831 41.5621 8.53331L41.3114 8.63531L39.1311 9.37906L38.3874 11.5614C38.2518 11.9597 38.001 12.3088 37.6668 12.5644C37.3326 12.82 36.9301 12.9707 36.5102 12.9973C36.0903 13.024 35.672 12.9254 35.3082 12.714C34.9444 12.5026 34.6515 12.188 34.4667 11.8101L34.3647 11.5614L33.621 9.38119L31.4386 8.63744C31.0402 8.50208 30.691 8.2515 30.4351 7.91745C30.1793 7.5834 30.0284 7.18092 30.0015 6.76102C29.9747 6.34111 30.0731 5.92268 30.2843 5.55876C30.4955 5.19484 30.8099 4.90181 31.1879 4.71681L31.4386 4.61481L33.6189 3.87106L34.3626 1.68869C34.5059 1.26884 34.777 0.904367 35.1379 0.646371C35.4988 0.388375 35.9314 0.249795 36.375 0.250061Z" fill="#1B22B4"/>
</g>
</svg>
